<?xml version="1.0" standalone="no"?>
<!DOCTYPE svg PUBLIC "-//W3C//DTD SVG 20010904//EN"
 "http://www.w3.org/TR/2001/REC-SVG-20010904/DTD/svg10.dtd">
<svg version="1.0" xmlns="http://www.w3.org/2000/svg"
 width="741.000000pt" height="741.000000pt" viewBox="0 0 741.000000 741.000000"
 preserveAspectRatio="xMidYMid meet">
<metadata>
Created by potrace 1.11, written by Peter Selinger 2001-2013
</metadata>
<g transform="translate(0.000000,741.000000) scale(0.100000,-0.100000)"
fill="#000000" stroke="none">
<path d="M2569 5025 c-1 -3 -2 -11 -3 -17 -1 -8 -27 -16 -71 -21 -38 -4 -76
-9 -82 -12 -9 -3 -13 -29 -13 -80 l0 -75 69 0 69 0 43 -66 c23 -36 53 -88 65
-114 27 -58 84 -103 157 -125 73 -22 541 -22 614 0 62 18 107 49 147 98 31 39
31 39 34 183 l3 144 133 0 c73 0 154 -3 179 -6 l46 -7 3 -137 c3 -137 3 -138
34 -177 41 -50 86 -80 150 -99 43 -12 104 -15 326 -12 l273 3 57 28 c31 15 67
41 80 57 13 16 48 61 78 101 l55 72 98 -7 97 -6 0 77 0 78 -108 41 c-92 36
-107 44 -105 63 l3 21 -520 0 c-513 0 -520 0 -520 -20 0 -19 -7 -20 -176 -20
-167 0 -176 1 -181 20 -5 20 -14 20 -519 20 -283 0 -515 -2 -515 -5z m979
-203 c-3 -144 -4 -150 -30 -184 -15 -20 -49 -47 -75 -59 -47 -23 -54 -24 -323
-24 -309 0 -337 5 -400 70 -31 32 -36 47 -61 172 -16 76 -28 146 -29 156 0 16
28 17 461 17 l460 0 -3 -148z m1382 137 c0 -6 -12 -75 -27 -152 -24 -128 -29
-144 -60 -178 -62 -69 -91 -74 -403 -74 -270 0 -276 0 -323 24 -26 13 -60 40
-75 59 -26 34 -27 40 -30 184 l-3 148 460 0 c332 0 461 -3 461 -11z"/>
<path d="M3039 4917 c-46 -31 -65 -88 -47 -142 25 -76 123 -110 182 -64 56 44
70 110 36 166 -38 63 -112 80 -171 40z m45 -43 c8 -21 -1 -34 -24 -34 -10 0
-21 4 -24 9 -10 16 5 41 24 41 10 0 21 -7 24 -16z m-7 -90 c2 -6 -3 -18 -10
-28 -18 -25 -57 -13 -57 18 0 34 20 49 44 33 11 -8 21 -18 23 -23z"/>
<path d="M4420 4933 c-76 -39 -89 -136 -25 -200 28 -28 40 -33 80 -33 40 0 52
5 80 33 43 43 52 79 34 130 -26 73 -102 104 -169 70z m44 -50 c4 -9 0 -23 -9
-32 -13 -14 -17 -14 -32 1 -13 14 -14 20 -3 32 16 21 36 20 44 -1z m-15 -67
c13 -16 -1 -56 -19 -56 -33 0 -55 42 -33 63 11 12 40 8 52 -7z"/>
<path d="M3390 3657 c0 -16 65 -126 89 -151 18 -18 20 -18 57 8 61 42 157 67
254 67 109 1 169 -13 250 -58 l65 -35 28 33 c29 35 77 120 77 139 0 7 -135 10
-410 10 -331 0 -410 -3 -410 -13z"/>
<path d="M5900 953 c-64 -57 -237 -263 -310 -369 -53 -77 -117 -199 -165 -314
-23 -56 -95 -258 -95 -267 0 -2 173 -3 385 -3 l385 0 0 249 c0 137 -5 285 -11
328 -10 75 -61 242 -112 366 l-24 58 -53 -48z"/>
<path d="M1611 904 c-84 -224 -91 -269 -91 -609 l0 -285 380 0 c209 0 380 4
380 8 0 39 -96 285 -165 422 -61 124 -115 201 -199 289 -61 62 -264 231 -279
231 -3 0 -15 -25 -26 -56z"/>
</g>
</svg>
